M48
;FILE_FORMAT=2:4
INCH,LZ
FMAT,2
ICI,OFF
;TYPE=PLATED
T1C.035
T2C.037
T3C.03937
T4C.04331
T5C.04724
T6C.06693
T7C.11811
T8C.12205
T9C.12402
T10C.17717
%
M72
G90
G93X0Y0
T1C.035F197S55
X0118Y0159
X017Y0159
X0118Y0232
X017Y0232
X012712Y0612
X014712Y0612
X013712Y0612
X014712Y0622
X012712Y0622
X013712Y0622
X020112Y0622
X021112Y0622
X022112Y0622
X021112Y0612
X022112Y0612
X020112Y0612
X0246Y0599
X0266Y0599
X0246Y0569
X0266Y0569
X025Y0541
X026Y0541
X024Y0541
X026Y0531
X024Y0531
X025Y0531
X025Y0301
X026Y0301
X024Y0301
X025Y0291
X024Y0291
X026Y0291
X0251Y0259
X0261Y0259
X0251Y0209
X0261Y0209
X0314Y0132
X0294Y0132
X0314Y0142
X0294Y0142
X0314Y0152
X0294Y0152
X0281Y0209
X0271Y0209
X0281Y0259
X0271Y0259
X027Y0291
X028Y0291
X029Y0291
X03Y0291
X031Y0291
X03Y0301
X031Y0301
X027Y0301
X028Y0301
X029Y0301
X03Y0531
X031Y0531
X027Y0531
X029Y0531
X028Y0531
X029Y0541
X028Y0541
X03Y0541
X031Y0541
X027Y0541
X027512Y0612
X029512Y0612
X028512Y0612
X028512Y0622
X029512Y0622
X027512Y0622
X034912Y0622
X035912Y0622
X034912Y0612
X035912Y0612
X032Y0541
X033Y0541
X034Y0541
X035Y0541
X036Y0541
X032Y0531
X033Y0531
X035Y0531
X036Y0531
X034Y0531
X033Y0301
X032Y0301
X035Y0301
X036Y0301
X034Y0301
X035Y0291
X036Y0291
X034Y0291
X033Y0291
X032Y0291
X0334Y0152
X0354Y0152
X0354Y0142
X0334Y0142
X0354Y0132
X0334Y0132
X038772Y01845
X039772Y01845
X03878Y025931
X03778Y025931
X04078Y025931
X03978Y025931
X039Y0291
X037Y0291
X038Y0291
X041Y0291
X04Y0291
X037Y0301
X038Y0301
X039Y0301
X041Y0301
X04Y0301
X038Y0531
X039Y0531
X037Y0531
X04Y0531
X041Y0531
X038Y0541
X037Y0541
X04Y0541
X039Y0541
X041Y0541
X0386Y0571
X0406Y0571
X0386Y0601
X0406Y0601
X036912Y0612
X036912Y0622
X046554Y05643
X047554Y05643
X048554Y05643
X042Y0541
X042Y0531
X046554Y04943
X047554Y04943
X048554Y04943
X048417Y043928
X047417Y043928
X046417Y043928
X042Y0301
X042Y0291
X048Y02818
X046Y02818
X045Y0206
X046Y0206
X049Y0206
X047Y0206
X05Y0206
X051Y0206
X05Y02818
X049417Y043928
X049554Y04943
T2C.037F197S55
X0235Y04825
X0245Y04875
X012Y052
X01525Y0525
X02075Y0535
X033Y06175
X0335Y05775
X0325Y04975
X0345Y0455
X0295Y0425
X0285Y0319
X03425Y0245
X0385Y0425
X0405Y04325
X0415Y05
X0415Y05975
T3C.03937F197S55
X046195Y01768
X046695Y01868
X047695Y01868
X048695Y01868
X049695Y01868
X047195Y01768
X049195Y01768
X048195Y01768
T4C.04331F139S55
X0398Y014
X040981Y015181
X0398Y015181
T5C.04724F139S55
X040981Y014
X041496Y064093
X044488Y064093
X047496Y064093
X050488Y064093
T6C.06693F089S55
X045373Y049391
X045373Y056477
X050728Y056477
X050728Y049391
T7C.11811F069S658
X045695Y01518
X050195Y01518
T8C.12205F035S794
X019843Y025748
X019843Y059213
X043465Y059213
X043465Y025748
T9C.12402F035S794
X040391Y012307
T10C.17717F035S1033
X013112Y012543
X016112Y012543
M30
