*
*
G04 PADS VX.2 Build Number: 5060570 generated Gerber (RS-274-X) file*
G04 PC Version=2.1*
*
%IN "0609_0355.pcb"*%
*
%MOIN*%
*
%FSLAX35Y35*%
*
*
*
*
G04 PC Standard Apertures*
*
*
G04 Thermal Relief Aperture macro.*
%AMTER*
1,1,$1,0,0*
1,0,$1-$2,0,0*
21,0,$3,$4,0,0,45*
21,0,$3,$4,0,0,135*
%
*
*
G04 Annular Aperture macro.*
%AMANN*
1,1,$1,0,0*
1,0,$2,0,0*
%
*
*
G04 Odd Aperture macro.*
%AMODD*
1,1,$1,0,0*
1,0,$1-0.005,0,0*
%
*
*
G04 PC Custom Aperture Macros*
*
*
*
*
*
*
G04 PC Aperture Table*
*
%ADD010C,0.001*%
%ADD030C,0.01*%
%ADD033C,0.00787*%
%ADD034C,0.00984*%
%ADD035C,0.005*%
%ADD036C,0.00591*%
%ADD037C,0.0015*%
%ADD038C,0.008*%
%ADD039C,0.009*%
*
*
*
*
G04 PC Circuitry*
G04 Layer Name 0609_0355.pcb - circuitry*
%LPD*%
*
*
G04 PC Custom Flashes*
G04 Layer Name 0609_0355.pcb - flashes*
%LPD*%
*
*
G04 PC Circuitry*
G04 Layer Name 0609_0355.pcb - circuitry*
%LPD*%
*
G54D10*
G54D30*
G01X154500Y258500D02*
X146500D01*
Y249500*
X154500*
X157500Y258500D02*
X165500D01*
Y249500*
X157500*
X430000Y278000D02*
X105197D01*
Y553591*
X430000*
Y278000*
X215000D02*
Y553000D01*
X175921Y666331D02*
Y627748D01*
X194425*
Y612000*
X226315*
Y627748*
X246000*
Y666331*
X175921*
X201118Y651370D02*
X221591D01*
Y666331*
X201118Y651370D02*
Y666331D01*
X101921D02*
Y627748D01*
X120425*
Y612000*
X152315*
Y627748*
X172000*
Y666331*
X101921*
X127118Y651370D02*
X147591D01*
Y666331*
X127118Y651370D02*
Y666331D01*
X323921D02*
Y627748D01*
X342425*
Y612000*
X374315*
Y627748*
X394000*
Y666331*
X323921*
X349118Y651370D02*
X369591D01*
Y666331*
X349118Y651370D02*
Y666331D01*
X249921D02*
Y627748D01*
X268425*
Y612000*
X300315*
Y627748*
X320000*
Y666331*
X249921*
X275118Y651370D02*
X295591D01*
Y666331*
X275118Y651370D02*
Y666331D01*
X512000Y488000D02*
Y570677D01*
X449008*
Y488000*
X512000*
X460394Y624394D02*
X519843D01*
Y665732*
X460394*
Y624394*
X471811Y665732D02*
X478898D01*
Y670063*
X471811*
Y665732*
X501732D02*
X508819D01*
Y670063*
X501732*
Y665732*
X400394Y624394D02*
X459843D01*
Y665732*
X400394*
Y624394*
X411811Y665732D02*
X418898D01*
Y670063*
X411811*
Y665732*
X441732D02*
X448819D01*
Y670063*
X441732*
Y665732*
X236000Y264000D02*
Y204000D01*
X296000*
Y264000*
X236000*
X267500Y241500D02*
X275500D01*
Y250500*
X267500*
X264500Y241500D02*
X256500D01*
Y250500*
X264500*
X370000Y266000D02*
Y176000D01*
X415276*
Y266000*
X370000*
X133200Y250500D02*
X139000D01*
Y257500*
X133200*
X130800Y250500D02*
X125000D01*
Y257500*
X130800*
X509945Y109283D02*
X448961D01*
Y190346*
X509945*
Y109283*
X450000Y444000D02*
X510000D01*
Y275693*
X450000*
Y444000*
X246000Y574000D02*
Y594000D01*
X266000*
Y574000*
X246000*
X229500Y582500D02*
Y574500D01*
X238500*
Y582500*
X229500Y585500D02*
Y593500D01*
X238500*
Y585500*
X273500Y582500D02*
Y574500D01*
X282500*
Y582500*
X273500Y585500D02*
Y593500D01*
X282500*
Y585500*
X386000Y576000D02*
Y596000D01*
X406000*
Y576000*
X386000*
X369500Y584500D02*
Y576500D01*
X378500*
Y584500*
X369500Y587500D02*
Y595500D01*
X378500*
Y587500*
X411500Y584500D02*
Y576500D01*
X420500*
Y584500*
X411500Y587500D02*
Y595500D01*
X420500*
Y587500*
X341500Y584500D02*
Y576500D01*
X350500*
Y584500*
X341500Y587500D02*
Y595500D01*
X350500*
Y587500*
X309500Y584500D02*
Y576500D01*
X318500*
Y584500*
X309500Y587500D02*
Y595500D01*
X318500*
Y587500*
X339500Y587200D02*
Y593000D01*
X332500*
Y587200*
X339500Y584800D02*
Y579000D01*
X332500*
Y584800*
X307500Y587200D02*
Y593000D01*
X300500*
Y587200*
X307500Y584800D02*
Y579000D01*
X300500*
Y584800*
X210425Y257480D02*
G75*
G03X210425I-12000J0D01*
G01X204425D02*
G03X204425I-6000J0D01*
G01X446646D02*
G03X446646I-12000J0D01*
G01X440646D02*
G03X440646I-6000J0D01*
G01X210425Y592126D02*
G03X210425I-12000J0D01*
G01X204425D02*
G03X204425I-6000J0D01*
G01X446646D02*
G03X446646I-12000J0D01*
G01X440646D02*
G03X440646I-6000J0D01*
G01X177000Y152000D02*
Y240000D01*
X111000*
Y152000*
X177000*
X136000Y212000D02*
X150000D01*
X143000Y219000*
X136000Y212000*
X143000Y218000D02*
Y171000D01*
X165000Y165000D02*
X170000D01*
X167000Y163000D02*
Y167000D01*
X121000Y162000D02*
Y167000D01*
X163000Y222000D02*
X171000D01*
X167000Y218000D02*
Y226000D01*
X120000Y218000D02*
Y225000D01*
X176000Y140000D02*
Y110000D01*
X123323*
X176000Y140000D02*
X122535D01*
X107969Y125433*
X123323Y110079*
X152000Y266563D02*
Y260000D01*
Y266563D02*
X154045D01*
X154045D02*
X154727Y266250D01*
X154955Y265938*
X154955D02*
X155182Y265313D01*
X155182D02*
Y264688D01*
X155182D02*
X154955Y264063D01*
X154955D02*
X154727Y263750D01*
X154045Y263438*
X154045D02*
X152000D01*
X153591D02*
X155182Y260000D01*
X157227Y265313D02*
X157682Y265625D01*
X158364Y266563*
X158364D02*
Y260000D01*
X281409Y247000D02*
X281182Y247625D01*
X280727Y248250*
X280273Y248563*
X279364*
X278909Y248250*
X278455Y247625*
X278227Y247000*
X278000Y246063*
Y244500*
X278227Y243563*
X278455Y242938*
X278909Y242313*
X279364Y242000*
X280273*
X280727Y242313*
X281182Y242938*
X281409Y243563*
X285727Y248563D02*
X283455Y244188D01*
X286864*
X285727Y248563D02*
Y242000D01*
X231233Y564567D02*
X237795D01*
X231233D02*
Y566612D01*
X231545Y567294*
X231858Y567521*
X232483Y567749*
X233108*
X233733Y567521*
X234045Y567294*
X234358Y566612*
Y564567*
Y566158D02*
X237795Y567749D01*
X232795Y570021D02*
X232483D01*
X231858Y570249*
X231545Y570476*
X231233Y570931*
Y571840*
X231545Y572294*
X231858Y572521*
X232483Y572749*
X233108*
X233733Y572521*
X234670Y572067*
X237795Y569794*
Y572976*
X277000Y567409D02*
X276375Y567182D01*
X275750Y566727*
X275437Y566273*
X275437D02*
Y565364D01*
X275437D02*
X275750Y564909D01*
X276375Y564455*
X277000Y564227*
X277937Y564000*
X277937D02*
X279500D01*
X280437Y564227*
X280437D02*
X281062Y564455D01*
X281062D02*
X281687Y564909D01*
X281687D02*
X282000Y565364D01*
Y566273*
X281687Y566727*
X281687D02*
X281062Y567182D01*
X281062D02*
X280437Y567409D01*
X275437Y572409D02*
Y570136D01*
X275437D02*
X278250Y569909D01*
X277937Y570136*
X277937D02*
X277625Y570818D01*
Y571500*
X277937Y572182*
X277937D02*
X278562Y572636D01*
X278562D02*
X279500Y572864D01*
X280125Y572636*
X281062Y572409*
X281062D02*
X281687Y571955D01*
X281687D02*
X282000Y571273D01*
Y570591*
X281687Y569909*
X281687D02*
X281375Y569682D01*
X280750Y569455*
X370437Y566000D02*
X377000D01*
X370437D02*
Y568045D01*
X370437D02*
X370750Y568727D01*
X371062Y568955*
X371062D02*
X371687Y569182D01*
X371687D02*
X372312D01*
X372312D02*
X372937Y568955D01*
X372937D02*
X373250Y568727D01*
X373562Y568045*
X373562D02*
Y566000D01*
Y567591D02*
X377000Y569182D01*
X370437Y571682D02*
Y574182D01*
X370437D02*
X372937Y572818D01*
X372937D02*
Y573500D01*
X372937D02*
X373250Y573955D01*
X373562Y574182*
X373562D02*
X374500Y574409D01*
X375125*
X376062Y574182*
X376062D02*
X376687Y573727D01*
X376687D02*
X377000Y573045D01*
Y572364*
X376687Y571682*
X376687D02*
X376375Y571455D01*
X375750Y571227*
X414000Y569409D02*
X413375Y569182D01*
X412750Y568727*
X412437Y568273*
X412437D02*
Y567364D01*
X412437D02*
X412750Y566909D01*
X413375Y566455*
X414000Y566227*
X414937Y566000*
X414937D02*
X416500D01*
X417437Y566227*
X417437D02*
X418062Y566455D01*
X418062D02*
X418687Y566909D01*
X418687D02*
X419000Y567364D01*
Y568273*
X418687Y568727*
X418687D02*
X418062Y569182D01*
X418062D02*
X417437Y569409D01*
X413375Y574182D02*
X412750Y573955D01*
X412437Y573273*
X412437D02*
Y572818D01*
X412437D02*
X412750Y572136D01*
X413687Y571682*
X413687D02*
X415250Y571455D01*
X416812*
X416812D02*
X418062Y571682D01*
X418062D02*
X418687Y572136D01*
X418687D02*
X419000Y572818D01*
Y573045*
X418687Y573727*
X418687D02*
X418062Y574182D01*
X418062D02*
X417125Y574409D01*
X416812*
X416812D02*
X415875Y574182D01*
X415250Y573727*
X414937Y573045*
X414937D02*
Y572818D01*
X414937D02*
X415250Y572136D01*
X415875Y571682*
X416812Y571455*
X352437Y581000D02*
X359000D01*
X352437D02*
Y583045D01*
X352437D02*
X352750Y583727D01*
X353062Y583955*
X353062D02*
X353687Y584182D01*
X353687D02*
X354312D01*
X354312D02*
X354937Y583955D01*
X354937D02*
X355250Y583727D01*
X355562Y583045*
X355562D02*
Y581000D01*
Y582591D02*
X359000Y584182D01*
X352437Y588500D02*
X356812Y586227D01*
X356812D02*
Y589636D01*
X352437Y588500D02*
X359000D01*
X319437Y581000D02*
X326000D01*
X319437D02*
Y583045D01*
X319437D02*
X319750Y583727D01*
X320062Y583955*
X320062D02*
X320687Y584182D01*
X320687D02*
X321312D01*
X321312D02*
X321937Y583955D01*
X321937D02*
X322250Y583727D01*
X322562Y583045*
X322562D02*
Y581000D01*
Y582591D02*
X326000Y584182D01*
X319437Y589182D02*
Y586909D01*
X319437D02*
X322250Y586682D01*
X321937Y586909*
X321937D02*
X321625Y587591D01*
Y588273*
X321937Y588955*
X321937D02*
X322562Y589409D01*
X322562D02*
X323500Y589636D01*
X324125Y589409*
X325062Y589182*
X325062D02*
X325687Y588727D01*
X325687D02*
X326000Y588045D01*
Y587364*
X325687Y586682*
X325687D02*
X325375Y586455D01*
X324750Y586227*
X332437Y566000D02*
X337125D01*
X338062Y566227*
X338062D02*
X338687Y566682D01*
X338687D02*
X339000Y567364D01*
Y567818*
X338687Y568500*
X338687D02*
X338062Y568955D01*
X338062D02*
X337125Y569182D01*
X332437*
X334000Y571455D02*
X333687D01*
X333687D02*
X333062Y571682D01*
X333062D02*
X332750Y571909D01*
X332437Y572364*
X332437D02*
Y573273D01*
X332437D02*
X332750Y573727D01*
X333062Y573955*
X333062D02*
X333687Y574182D01*
X333687D02*
X334312D01*
X334312D02*
X334937Y573955D01*
X334937D02*
X335875Y573500D01*
X339000Y571227*
Y574409*
X333687Y576455D02*
X333375Y576909D01*
X332437Y577591*
X332437D02*
X339000D01*
X291438Y579000D02*
X296125D01*
X297063Y579227*
X297063D02*
X297688Y579682D01*
X297688D02*
X298000Y580364D01*
Y580818*
X297688Y581500*
X297688D02*
X297063Y581955D01*
X297063D02*
X296125Y582182D01*
X291438*
X293000Y584455D02*
X292688D01*
X292688D02*
X292063Y584682D01*
X292063D02*
X291750Y584909D01*
X291438Y585364*
X291438D02*
Y586273D01*
X291438D02*
X291750Y586727D01*
X292063Y586955*
X292063D02*
X292688Y587182D01*
X292688D02*
X293313D01*
X293313D02*
X293938Y586955D01*
X293938D02*
X294875Y586500D01*
X298000Y584227*
Y587409*
X293000Y589682D02*
X292688D01*
X292688D02*
X292063Y589909D01*
X292063D02*
X291750Y590136D01*
X291438Y590591*
X291438D02*
Y591500D01*
X291438D02*
X291750Y591955D01*
X292063Y592182*
X292063D02*
X292688Y592409D01*
X292688D02*
X293313D01*
X293313D02*
X293938Y592182D01*
X293938D02*
X294875Y591727D01*
X298000Y589455*
Y592636*
X213425Y264043D02*
X216607Y257480D01*
Y264043D02*
X213425Y257480D01*
X218652Y262793D02*
X219107Y263105D01*
X219789Y264043*
Y257480*
X449646Y264043D02*
X452827Y257480D01*
Y264043D02*
X449646Y257480D01*
X455100Y262480D02*
Y262793D01*
X455327Y263418*
X455555Y263730*
X456009Y264043*
X456918*
X457373Y263730*
X457600Y263418*
X457827Y262793*
Y262168*
X457600Y261543*
X457146Y260605*
X454873Y257480*
X458055*
X174803Y598688D02*
X177985Y592126D01*
Y598688D02*
X174803Y592126D01*
X180485Y598688D02*
X182985D01*
X181621Y596188*
X182303*
X182758Y595876*
X182985Y595563*
X183212Y594626*
Y594001*
X182985Y593063*
X182530Y592438*
X181849Y592126*
X181167*
X180485Y592438*
X180258Y592751*
X180030Y593376*
X449646Y598688D02*
X452827Y592126D01*
Y598688D02*
X449646Y592126D01*
X457146Y598688D02*
X454873Y594313D01*
X458282*
X457146Y598688D02*
Y592126D01*
X186955Y240375D02*
X186727Y239438D01*
X186727D02*
X186273Y238813D01*
X186273D02*
X185591Y238500D01*
X185364*
X184682Y238813*
X184682D02*
X184227Y239438D01*
X184227D02*
X184000Y240375D01*
Y240688*
X184000D02*
X184227Y241625D01*
X184682Y242250*
X185364Y242563*
X185364D02*
X185591D01*
X185591D02*
X186273Y242250D01*
X186727Y241625*
X186955Y240375*
Y238813*
X186955D02*
X186727Y237250D01*
X186273Y236313*
X186273D02*
X185591Y236000D01*
X185136*
X184455Y236313*
X184455D02*
X184227Y236938D01*
X189000Y242563D02*
X190818Y236000D01*
X192636Y242563D02*
X190818Y236000D01*
X201045Y240375D02*
X200591Y240063D01*
X200591D02*
X200136Y239438D01*
X200136D02*
X199909Y238500D01*
Y237875*
X200136Y236938*
X200136D02*
X200591Y236313D01*
X200591D02*
X201045Y236000D01*
X201727*
X202182Y236313*
X202182D02*
X202636Y236938D01*
X202636D02*
X202864Y237875D01*
Y238500*
X202636Y239438*
X202636D02*
X202182Y240063D01*
X202182D02*
X201727Y240375D01*
X201045*
X204909D02*
Y237250D01*
X205136Y236313*
X205136D02*
X205591Y236000D01*
X206273*
X206727Y236313*
X206727D02*
X207409Y237250D01*
Y240375D02*
Y236000D01*
X210136Y242563D02*
Y237250D01*
X210364Y236313*
X210364D02*
X210818Y236000D01*
X211273*
X209455Y240375D02*
X211045D01*
X190000Y225719D02*
X190318Y225938D01*
X190318D02*
X190795Y226594D01*
Y222000*
X194136Y225938D02*
X193977Y226375D01*
X193500Y226594*
X193182*
X192705Y226375*
X192386Y225719*
X192227Y224625*
Y223531*
X192386Y222656*
X192705Y222219*
X193182Y222000*
X193341*
X193818Y222219*
X194136Y222656*
X194295Y223313*
X194295D02*
Y223531D01*
X194136Y224188*
X194136D02*
X193818Y224625D01*
X193341Y224844*
X193182*
X192705Y224625*
X192386Y224188*
X192386D02*
X192227Y223531D01*
X195727Y226594D02*
X197000Y222000D01*
X198273Y226594D02*
X197000Y222000D01*
X203523Y225500D02*
Y225719D01*
X203682Y226156*
X203841Y226375*
X204159Y226594*
X204795*
X205114Y226375*
X205273Y226156*
X205432Y225719*
Y225281*
X205273Y224844*
X204955Y224188*
X204955D02*
X203364Y222000D01*
X205591*
X207182Y225500D02*
Y225719D01*
X207341Y226156*
X207500Y226375*
X207818Y226594*
X208455*
X208773Y226375*
X208932Y226156*
X209091Y225719*
Y225281*
X208932Y224844*
X208614Y224188*
X208614D02*
X207023Y222000D01*
X209250*
X211636Y226594D02*
X211159Y226375D01*
X210841Y225719*
X210682Y224625*
Y223969*
X210841Y222875*
X211159Y222219*
X211636Y222000*
X211955*
X212432Y222219*
X212750Y222875*
X212909Y223969*
Y224625*
X212750Y225719*
X212432Y226375*
X211955Y226594*
X211636*
X214341Y225063D02*
Y222875D01*
X214500Y222219*
X214818Y222000*
X215295*
X215614Y222219*
X216091Y222875*
Y225063D02*
Y222000D01*
X217523Y226594D02*
Y222000D01*
Y226594D02*
X219591D01*
X217523Y224406D02*
X218795D01*
X192068Y179594D02*
X190477D01*
X190318Y177625*
X190477Y177844*
X190955Y178063*
X190955D02*
X191432D01*
X191432D02*
X191909Y177844D01*
X192227Y177406*
X192386Y176750*
X192227Y176313*
X192227D02*
X192068Y175656D01*
X191750Y175219*
X191273Y175000*
X190795*
X190318Y175219*
X190159Y175438*
X190159D02*
X190000Y175875D01*
X194773Y179594D02*
X194295Y179375D01*
X193977Y178719*
X193818Y177625*
Y176969*
X193977Y175875*
X194295Y175219*
X194773Y175000*
X195091*
X195568Y175219*
X195886Y175875*
X196045Y176969*
Y177625*
X195886Y178719*
X195568Y179375*
X195091Y179594*
X194773*
X197477D02*
X198750Y175000D01*
X200023Y179594D02*
X198750Y175000D01*
X206705Y179594D02*
X205114Y176531D01*
X207500*
X206705Y179594D02*
Y175000D01*
X211159Y179594D02*
X209568Y175000D01*
X208932Y179594D02*
X211159D01*
X212591Y178063D02*
Y175875D01*
X212750Y175219*
X213068Y175000*
X213545*
X213864Y175219*
X214341Y175875*
Y178063D02*
Y175000D01*
X215773Y179594D02*
Y175000D01*
Y179594D02*
X217841D01*
X215773Y177406D02*
X217045D01*
X459818Y200563D02*
X458000Y194000D01*
X459818Y200563D02*
X461636Y194000D01*
X458682Y196188D02*
X460955D01*
X498000Y200563D02*
Y194000D01*
Y200563D02*
X500045D01*
X500045D02*
X500727Y200250D01*
X500955Y199938*
X500955D02*
X501182Y199313D01*
X501182D02*
Y198688D01*
X501182D02*
X500955Y198063D01*
X500955D02*
X500727Y197750D01*
X500045Y197438*
X498000D02*
X500045D01*
X500045D02*
X500727Y197125D01*
X500955Y196813*
X500955D02*
X501182Y196188D01*
X501182D02*
Y195250D01*
X500955Y194625*
X500727Y194313*
X500727D02*
X500045Y194000D01*
X498000*
X483563Y383409D02*
X477000D01*
X483563Y385000D02*
Y381818D01*
Y378182D02*
X477000D01*
X483563Y379773D02*
Y376591D01*
Y374545D02*
X477000D01*
Y371818*
X479813Y364545D02*
Y360455D01*
X483563Y350909D02*
X479188Y353182D01*
X479188D02*
Y349773D01*
X483563Y350909D02*
X477000D01*
X483563Y346591D02*
X483250Y347273D01*
X482625Y347500*
X482000*
X481375Y347273*
X481063Y346818*
X481063D02*
X480750Y345909D01*
X480438Y345227*
X480438D02*
X479813Y344773D01*
X479813D02*
X479188Y344545D01*
X479188D02*
X478250D01*
X477625Y344773*
X477313Y345000*
X477313D02*
X477000Y345682D01*
Y346591*
X477313Y347273*
X477313D02*
X477625Y347500D01*
X478250Y347727*
X479188*
X479188D02*
X479813Y347500D01*
X479813D02*
X480438Y347045D01*
X480438D02*
X480750Y346364D01*
X481063Y345455*
X481063D02*
X481375Y345000D01*
X482000Y344773*
X482625*
X483250Y345000*
X483563Y345682*
X483563D02*
Y346591D01*
Y339545D02*
Y341818D01*
X483563D02*
X480750Y342045D01*
X481063Y341818*
X481063D02*
X481375Y341136D01*
Y340455*
X481063Y339773*
X481063D02*
X480438Y339318D01*
X480438D02*
X479500Y339091D01*
X478875Y339318*
X477938Y339545*
X477938D02*
X477313Y340000D01*
X477313D02*
X477000Y340682D01*
Y341364*
X477313Y342045*
X477313D02*
X477625Y342273D01*
X478250Y342500*
X260000Y224563D02*
Y218000D01*
X262045Y224563D02*
Y218000D01*
Y224563D02*
X263864Y218000D01*
X265682Y224563D02*
X263864Y218000D01*
X265682Y224563D02*
Y218000D01*
X267727Y224563D02*
Y219875D01*
X267955Y218938*
X267955D02*
X268409Y218313D01*
X268409D02*
X269091Y218000D01*
X269545*
X270227Y218313*
X270227D02*
X270682Y218938D01*
X270682D02*
X270909Y219875D01*
Y224563*
X319000Y234719D02*
X319318Y234938D01*
X319318D02*
X319795Y235594D01*
Y231000*
X323136Y234938D02*
X322977Y235375D01*
X322500Y235594*
X322182*
X321705Y235375*
X321386Y234719*
X321227Y233625*
Y232531*
X321386Y231656*
X321705Y231219*
X322182Y231000*
X322341*
X322818Y231219*
X323136Y231656*
X323295Y232313*
X323295D02*
Y232531D01*
X323136Y233188*
X323136D02*
X322818Y233625D01*
X322341Y233844*
X322182*
X321705Y233625*
X321386Y233188*
X321386D02*
X321227Y232531D01*
X324727Y235594D02*
X326000Y231000D01*
X327273Y235594D02*
X326000Y231000D01*
X332523Y234500D02*
Y234719D01*
X332682Y235156*
X332841Y235375*
X333159Y235594*
X333795*
X334114Y235375*
X334273Y235156*
X334432Y234719*
Y234281*
X334273Y233844*
X333955Y233188*
X333955D02*
X332364Y231000D01*
X334591*
X336182Y234500D02*
Y234719D01*
X336341Y235156*
X336500Y235375*
X336818Y235594*
X337455*
X337773Y235375*
X337932Y235156*
X338091Y234719*
Y234281*
X337932Y233844*
X337614Y233188*
X337614D02*
X336023Y231000D01*
X338250*
X340636Y235594D02*
X340159Y235375D01*
X339841Y234719*
X339682Y233625*
Y232969*
X339841Y231875*
X340159Y231219*
X340636Y231000*
X340955*
X341432Y231219*
X341750Y231875*
X341909Y232969*
Y233625*
X341750Y234719*
X341432Y235375*
X340955Y235594*
X340636*
X343341Y234063D02*
Y231875D01*
X343500Y231219*
X343818Y231000*
X344295*
X344614Y231219*
X345091Y231875*
Y234063D02*
Y231000D01*
X346523Y235594D02*
Y231000D01*
Y235594D02*
X348591D01*
X346523Y233406D02*
X347795D01*
X412955Y620563D02*
X410682D01*
X410682D02*
X410455Y617750D01*
X410682Y618063*
X410682D02*
X411364Y618375D01*
X412045*
X412727Y618063*
X412727D02*
X413182Y617438D01*
X413182D02*
X413409Y616500D01*
X413182Y615875*
X412955Y614938*
X412955D02*
X412500Y614313D01*
X412500D02*
X411818Y614000D01*
X411136*
X410455Y614313*
X410455D02*
X410227Y614625D01*
X410000Y615250*
X415455Y620563D02*
X417273Y614000D01*
X419091Y620563D02*
X417273Y614000D01*
X442409Y619000D02*
X442182Y619625D01*
X441727Y620250*
X441273Y620563*
X441273D02*
X440364D01*
X440364D02*
X439909Y620250D01*
X439455Y619625*
X439227Y619000*
X439000Y618063*
X439000D02*
Y616500D01*
X439227Y615563*
X439227D02*
X439455Y614938D01*
X439455D02*
X439909Y614313D01*
X439909D02*
X440364Y614000D01*
X441273*
X441727Y614313*
X441727D02*
X442182Y614938D01*
X442182D02*
X442409Y615563D01*
X442409D02*
Y616500D01*
X441273D02*
X442409D01*
X444455Y620563D02*
Y614000D01*
Y620563D02*
X447636Y614000D01*
Y620563D02*
Y614000D01*
X449682Y620563D02*
Y614000D01*
Y620563D02*
X451273D01*
X451273D02*
X451955Y620250D01*
X452409Y619625*
X452636Y619000*
X452864Y618063*
X452864D02*
Y616500D01*
X452636Y615563*
X452636D02*
X452409Y614938D01*
X452409D02*
X451955Y614313D01*
X451955D02*
X451273Y614000D01*
X449682*
X471591Y620563D02*
Y614000D01*
X470000Y620563D02*
X473182D01*
X475227D02*
X478409Y614000D01*
Y620563D02*
X475227Y614000D01*
X500000Y620563D02*
Y614000D01*
Y620563D02*
X502045D01*
X502045D02*
X502727Y620250D01*
X502955Y619938*
X502955D02*
X503182Y619313D01*
X503182D02*
Y618688D01*
X503182D02*
X502955Y618063D01*
X502955D02*
X502727Y617750D01*
X502045Y617438*
X502045D02*
X500000D01*
X501591D02*
X503182Y614000D01*
X505227Y620563D02*
X508409Y614000D01*
Y620563D02*
X505227Y614000D01*
X248000Y563563D02*
Y557000D01*
Y563563D02*
X250045D01*
X250045D02*
X250727Y563250D01*
X250955Y562938*
X250955D02*
X251182Y562313D01*
X251182D02*
Y561375D01*
X250955Y560750*
X250727Y560438*
X250727D02*
X250045Y560125D01*
X248000*
X253227Y563563D02*
Y557000D01*
Y563563D02*
X255273D01*
X255273D02*
X255955Y563250D01*
X256182Y562938*
X256182D02*
X256409Y562313D01*
X256409D02*
Y561688D01*
X256409D02*
X256182Y561063D01*
X256182D02*
X255955Y560750D01*
X255273Y560438*
X253227D02*
X255273D01*
X255273D02*
X255955Y560125D01*
X256182Y559813*
X256182D02*
X256409Y559188D01*
X256409D02*
Y558250D01*
X256182Y557625*
X255955Y557313*
X255955D02*
X255273Y557000D01*
X253227*
X258455Y562313D02*
X258909Y562625D01*
X259591Y563563*
X259591D02*
Y557000D01*
X261864Y562000D02*
Y562313D01*
X261864D02*
X262091Y562938D01*
X262091D02*
X262318Y563250D01*
X262773Y563563*
X262773D02*
X263682D01*
X263682D02*
X264136Y563250D01*
X264364Y562938*
X264364D02*
X264591Y562313D01*
X264591D02*
Y561688D01*
X264591D02*
X264364Y561063D01*
X264364D02*
X263909Y560125D01*
X261636Y557000*
X264818*
X389000Y563563D02*
Y557000D01*
Y563563D02*
X391045D01*
X391045D02*
X391727Y563250D01*
X391955Y562938*
X391955D02*
X392182Y562313D01*
X392182D02*
Y561375D01*
X391955Y560750*
X391727Y560438*
X391727D02*
X391045Y560125D01*
X389000*
X394227Y563563D02*
Y557000D01*
Y563563D02*
X396273D01*
X396273D02*
X396955Y563250D01*
X397182Y562938*
X397182D02*
X397409Y562313D01*
X397409D02*
Y561688D01*
X397409D02*
X397182Y561063D01*
X397182D02*
X396955Y560750D01*
X396273Y560438*
X394227D02*
X396273D01*
X396273D02*
X396955Y560125D01*
X397182Y559813*
X397182D02*
X397409Y559188D01*
X397409D02*
Y558250D01*
X397182Y557625*
X396955Y557313*
X396955D02*
X396273Y557000D01*
X394227*
X399455Y562313D02*
X399909Y562625D01*
X400591Y563563*
X400591D02*
Y557000D01*
X403091Y563563D02*
X405591D01*
X405591D02*
X404227Y561063D01*
X404227D02*
X404909D01*
X404909D02*
X405364Y560750D01*
X405591Y560438*
X405591D02*
X405818Y559500D01*
Y558875*
X405591Y557938*
X405591D02*
X405136Y557313D01*
X405136D02*
X404455Y557000D01*
X403773*
X403091Y557313*
X403091D02*
X402864Y557625D01*
X402636Y558250*
X336000Y562563D02*
Y556000D01*
Y562563D02*
X338045D01*
X338045D02*
X338727Y562250D01*
X338955Y561938*
X338955D02*
X339182Y561313D01*
X339182D02*
Y560375D01*
X338955Y559750*
X338727Y559438*
X338727D02*
X338045Y559125D01*
X336000*
X341227Y562563D02*
Y556000D01*
Y562563D02*
X343273D01*
X343273D02*
X343955Y562250D01*
X344182Y561938*
X344182D02*
X344409Y561313D01*
X344409D02*
Y560688D01*
X344409D02*
X344182Y560063D01*
X344182D02*
X343955Y559750D01*
X343273Y559438*
X341227D02*
X343273D01*
X343273D02*
X343955Y559125D01*
X344182Y558813*
X344182D02*
X344409Y558188D01*
X344409D02*
Y557250D01*
X344182Y556625*
X343955Y556313*
X343955D02*
X343273Y556000D01*
X341227*
X346455Y561313D02*
X346909Y561625D01*
X347591Y562563*
X347591D02*
Y556000D01*
X351909Y562563D02*
X349636Y558188D01*
X349636D02*
X353045D01*
X351909Y562563D02*
Y556000D01*
X299000Y562563D02*
Y556000D01*
Y562563D02*
X301045D01*
X301045D02*
X301727Y562250D01*
X301955Y561938*
X301955D02*
X302182Y561313D01*
X302182D02*
Y560375D01*
X301955Y559750*
X301727Y559438*
X301727D02*
X301045Y559125D01*
X299000*
X304227Y562563D02*
Y556000D01*
Y562563D02*
X306273D01*
X306273D02*
X306955Y562250D01*
X307182Y561938*
X307182D02*
X307409Y561313D01*
X307409D02*
Y560688D01*
X307409D02*
X307182Y560063D01*
X307182D02*
X306955Y559750D01*
X306273Y559438*
X304227D02*
X306273D01*
X306273D02*
X306955Y559125D01*
X307182Y558813*
X307182D02*
X307409Y558188D01*
X307409D02*
Y557250D01*
X307182Y556625*
X306955Y556313*
X306955D02*
X306273Y556000D01*
X304227*
X309455Y561313D02*
X309909Y561625D01*
X310591Y562563*
X310591D02*
Y556000D01*
X315591Y562563D02*
X313318D01*
X313318D02*
X313091Y559750D01*
X313318Y560063*
X313318D02*
X314000Y560375D01*
X314682*
X315364Y560063*
X315364D02*
X315818Y559438D01*
X315818D02*
X316045Y558500D01*
X315818Y557875*
X315591Y556938*
X315591D02*
X315136Y556313D01*
X315136D02*
X314455Y556000D01*
X313773*
X313091Y556313*
X313091D02*
X312864Y556625D01*
X312636Y557250*
X100000Y100000D02*
X522000D01*
Y672000*
X100000*
Y100000*
G54D33*
X208134Y191008D02*
X216992D01*
Y210496*
X210496Y216992*
X208134*
X199866Y191008D02*
X191008D01*
Y210496*
X197504Y216992*
X199866*
X346992Y256134D02*
Y264992D01*
X327504*
X321008Y258496*
Y256134*
X346992Y247866D02*
Y239008D01*
X327504*
X321008Y245504*
Y247866*
X208134Y144008D02*
X216992D01*
Y163496*
X210496Y169992*
X208134*
X199866Y144008D02*
X191008D01*
Y163496*
X197504Y169992*
X199866*
G54D34*
X209217Y218961D02*
G03X209217I-493J0D01*
G01X319531Y256724D02*
G03X319531I-492J0D01*
G01X209217Y171961D02*
G03X209217I-493J0D01*
G54D35*
G01X156875Y388000D02*
X170000D01*
X156875D02*
X170000Y394364D01*
X156875D02*
X170000D01*
X156875Y398455D02*
X166250D01*
X168125Y398909*
X169375Y399818*
X170000Y401182*
Y402091*
X169375Y403455*
X168125Y404364*
X166250Y404818*
X156875*
X160000Y415727D02*
X158750Y415273D01*
X157500Y414364*
X156875Y413455*
Y411636*
X157500Y410727*
X158750Y409818*
X160000Y409364*
X161875Y408909*
X165000*
X166875Y409364*
X168125Y409818*
X169375Y410727*
X170000Y411636*
Y413455*
X169375Y414364*
X168125Y415273*
X166875Y415727*
X156875Y419818D02*
X170000D01*
Y425273*
X156875Y429364D02*
X170000D01*
X156875D02*
Y435273D01*
X163125Y429364D02*
Y433000D01*
X170000Y429364D02*
Y435273D01*
X156875Y442091D02*
X157500Y441182D01*
X158750Y440273*
X160000Y439818*
X161875Y439364*
X165000*
X166875Y439818*
X168125Y440273*
X169375Y441182*
X170000Y442091*
Y443909*
X169375Y444818*
X168125Y445727*
X166875Y446182*
X165000Y446636*
X161875*
X160000Y446182*
X158750Y445727*
X157500Y444818*
X156875Y443909*
Y442091*
X164375Y450727D02*
Y458909D01*
X476000Y152281D02*
Y149938D01*
X476000D02*
X476114Y149469D01*
X476341Y149156*
X476682Y149000*
X476909*
X477250Y149156*
X477477Y149469*
X477591Y149938*
X477591D02*
Y152281D01*
X478614Y151656D02*
X478841Y151813D01*
X478841D02*
X479182Y152281D01*
Y149000*
X481682Y152281D02*
X480545D01*
X480432Y150875*
X480545Y151031*
X480886Y151188*
X480886D02*
X481227D01*
X481227D02*
X481568Y151031D01*
X481795Y150719*
X481909Y150250*
X481795Y149938*
X481795D02*
X481682Y149469D01*
X481455Y149156*
X481114Y149000*
X480773*
X480432Y149156*
X480318Y149313*
X480318D02*
X480205Y149625D01*
G54D36*
X203354Y202899D02*
X202985Y202765D01*
X202616Y202497*
X202431Y202228*
Y201691*
X202616Y201423*
X202985Y201155*
X203354Y201020*
X203908Y200886*
X204830*
X205384Y201020*
X205753Y201155*
X206122Y201423*
X206307Y201691*
Y202228*
X206122Y202497*
X205753Y202765*
X205384Y202899*
X203354Y204242D02*
X203170D01*
X202800Y204376*
X202616Y204510*
X202431Y204778*
Y205315*
X202616Y205584*
X202800Y205718*
X203170Y205852*
X203539*
X203908Y205718*
X204461Y205450*
X206307Y204107*
Y205986*
X332899Y252646D02*
X332765Y253015D01*
X332497Y253384*
X332228Y253569*
X331691*
X331423Y253384*
X331155Y253015*
X331020Y252646*
X330886Y252092*
Y251170*
X331020Y250616*
X331155Y250247*
X331423Y249878*
X331691Y249693*
X332228*
X332497Y249878*
X332765Y250247*
X332899Y250616*
X334376Y253569D02*
X335852D01*
X335047Y252092*
X335450*
X335718Y251908*
X335852Y251723*
X335986Y251170*
Y250800*
X335852Y250247*
X335584Y249878*
X335181Y249693*
X334778*
X334376Y249878*
X334242Y250062*
X334107Y250431*
X203354Y156503D02*
X202985Y156369D01*
X202616Y156101*
X202431Y155832*
Y155295*
X202616Y155027*
X202985Y154759*
X203354Y154624*
X203908Y154490*
X204830*
X205384Y154624*
X205753Y154759*
X206122Y155027*
X206307Y155295*
Y155832*
X206122Y156101*
X205753Y156369*
X205384Y156503*
X203170Y157711D02*
X202985Y157980D01*
X202431Y158382*
X206307*
G54D37*
X295312Y388000D02*
X309375D01*
X312187Y388682*
X312187D02*
X314062Y390045D01*
X314062D02*
X315000Y392091D01*
Y393455*
X314062Y395500*
X314062D02*
X312187Y396864D01*
X312187D02*
X309375Y397545D01*
X295312*
Y405045D02*
Y412545D01*
X295312D02*
X302812Y408455D01*
X302812D02*
Y410500D01*
X302812D02*
X303750Y411864D01*
X304687Y412545*
X304687D02*
X307500Y413227D01*
X309375*
X312187Y412545*
X312187D02*
X314062Y411182D01*
X314062D02*
X315000Y409136D01*
Y407091*
X314062Y405045*
X314062D02*
X313125Y404364D01*
X311250Y403682*
X186614Y607751D02*
Y600000D01*
Y607751D02*
X190104D01*
X186614Y604060D02*
X188762D01*
X186614Y600000D02*
X190104D01*
X192520Y607751D02*
Y600000D01*
Y607751D02*
X196278Y600000D01*
Y607751D02*
Y600000D01*
X202720Y605906D02*
X202452Y606644D01*
X201915Y607382*
X201378Y607751*
X200304*
X199767Y607382*
X199230Y606644*
X198962Y605906*
X198694Y604798*
Y602953*
X198962Y601845*
X199230Y601107*
X199767Y600369*
X200304Y600000*
X201378*
X201915Y600369*
X202452Y601107*
X202720Y601845*
X206747Y607751D02*
X206210Y607382D01*
X205673Y606644*
X205404Y605906*
X205136Y604798*
Y602953*
X205404Y601845*
X205673Y601107*
X206210Y600369*
X206747Y600000*
X207820*
X208357Y600369*
X208894Y601107*
X209162Y601845*
X209431Y602953*
Y604798*
X209162Y605906*
X208894Y606644*
X208357Y607382*
X207820Y607751*
X206747*
X211847D02*
Y600000D01*
Y607751D02*
X213726D01*
X214531Y607382*
X215068Y606644*
X215336Y605906*
X215605Y604798*
Y602953*
X215336Y601845*
X215068Y601107*
X214531Y600369*
X213726Y600000*
X211847*
X218021Y607751D02*
Y600000D01*
Y607751D02*
X221510D01*
X218021Y604060D02*
X220168D01*
X218021Y600000D02*
X221510D01*
X223926Y607751D02*
Y600000D01*
Y607751D02*
X226342D01*
X227147Y607382*
X227416Y607013*
X227684Y606275*
Y605536*
X227416Y604798*
X227147Y604429*
X226342Y604060*
X223926*
X225805D02*
X227684Y600000D01*
X231711Y607751D02*
X230906Y607382D01*
X230369Y606275*
X230100Y604429*
Y603322*
X230369Y601476*
X230906Y600369*
X231711Y600000*
X232248*
X233053Y600369*
X233590Y601476*
X233858Y603322*
Y604429*
X233590Y606275*
X233053Y607382*
X232248Y607751*
X231711*
X111811D02*
Y600000D01*
Y607751D02*
X115301D01*
X111811Y604060D02*
X113958D01*
X111811Y600000D02*
X115301D01*
X117717Y607751D02*
Y600000D01*
Y607751D02*
X121475Y600000D01*
Y607751D02*
Y600000D01*
X127917Y605906D02*
X127649Y606644D01*
X127112Y607382*
X126575Y607751*
X125501*
X124964Y607382*
X124427Y606644*
X124159Y605906*
X123890Y604798*
Y602953*
X124159Y601845*
X124427Y601107*
X124964Y600369*
X125501Y600000*
X126575*
X127112Y600369*
X127649Y601107*
X127917Y601845*
X131943Y607751D02*
X131407Y607382D01*
X130870Y606644*
X130601Y605906*
X130333Y604798*
Y602953*
X130601Y601845*
X130870Y601107*
X131407Y600369*
X131943Y600000*
X133017*
X133554Y600369*
X134091Y601107*
X134359Y601845*
X134628Y602953*
Y604798*
X134359Y605906*
X134091Y606644*
X133554Y607382*
X133017Y607751*
X131943*
X137044D02*
Y600000D01*
Y607751D02*
X138923D01*
X139728Y607382*
X140265Y606644*
X140533Y605906*
X140802Y604798*
Y602953*
X140533Y601845*
X140265Y601107*
X139728Y600369*
X138923Y600000*
X137044*
X143218Y607751D02*
Y600000D01*
Y607751D02*
X146707D01*
X143218Y604060D02*
X145365D01*
X143218Y600000D02*
X146707D01*
X149123Y607751D02*
Y600000D01*
Y607751D02*
X151539D01*
X152344Y607382*
X152613Y607013*
X152881Y606275*
Y605536*
X152613Y604798*
X152344Y604429*
X151539Y604060*
X149123*
X151002D02*
X152881Y600000D01*
X155297Y606275D02*
X155834Y606644D01*
X156639Y607751*
Y600000*
X332283Y607751D02*
Y600000D01*
Y607751D02*
X335773D01*
X332283Y604060D02*
X334431D01*
X332283Y600000D02*
X335773D01*
X338189Y607751D02*
Y600000D01*
Y607751D02*
X341947Y600000D01*
Y607751D02*
Y600000D01*
X348389Y605906D02*
X348121Y606644D01*
X347584Y607382*
X347047Y607751*
X345974*
X345437Y607382*
X344900Y606644*
X344631Y605906*
X344363Y604798*
Y602953*
X344631Y601845*
X344900Y601107*
X345437Y600369*
X345974Y600000*
X347047*
X347584Y600369*
X348121Y601107*
X348389Y601845*
X352416Y607751D02*
X351879Y607382D01*
X351342Y606644*
X351074Y605906*
X350805Y604798*
Y602953*
X351074Y601845*
X351342Y601107*
X351879Y600369*
X352416Y600000*
X353490*
X354026Y600369*
X354563Y601107*
X354832Y601845*
X355100Y602953*
Y604798*
X354832Y605906*
X354563Y606644*
X354026Y607382*
X353490Y607751*
X352416*
X357516D02*
Y600000D01*
Y607751D02*
X359395D01*
X360200Y607382*
X360737Y606644*
X361006Y605906*
X361274Y604798*
Y602953*
X361006Y601845*
X360737Y601107*
X360200Y600369*
X359395Y600000*
X357516*
X363690Y607751D02*
Y600000D01*
Y607751D02*
X367180D01*
X363690Y604060D02*
X365838D01*
X363690Y600000D02*
X367180D01*
X369596Y607751D02*
Y600000D01*
Y607751D02*
X372011D01*
X372817Y607382*
X373085Y607013*
X373354Y606275*
Y605536*
X373085Y604798*
X372817Y604429*
X372011Y604060*
X369596*
X371475D02*
X373354Y600000D01*
X376038Y605906D02*
Y606275D01*
X376306Y607013*
X376575Y607382*
X377112Y607751*
X378185*
X378722Y607382*
X378991Y607013*
X379259Y606275*
Y605536*
X378991Y604798*
X378454Y603691*
X375770Y600000*
X379528*
X261417Y607751D02*
Y600000D01*
Y607751D02*
X264907D01*
X261417Y604060D02*
X263565D01*
X261417Y600000D02*
X264907D01*
X267323Y607751D02*
Y600000D01*
Y607751D02*
X271081Y600000D01*
Y607751D02*
Y600000D01*
X277523Y605906D02*
X277255Y606644D01*
X276718Y607382*
X276181Y607751*
X275107*
X274571Y607382*
X274034Y606644*
X273765Y605906*
X273497Y604798*
Y602953*
X273765Y601845*
X274034Y601107*
X274571Y600369*
X275107Y600000*
X276181*
X276718Y600369*
X277255Y601107*
X277523Y601845*
X281550Y607751D02*
X281013Y607382D01*
X280476Y606644*
X280208Y605906*
X279939Y604798*
Y602953*
X280208Y601845*
X280476Y601107*
X281013Y600369*
X281550Y600000*
X282623*
X283160Y600369*
X283697Y601107*
X283966Y601845*
X284234Y602953*
Y604798*
X283966Y605906*
X283697Y606644*
X283160Y607382*
X282623Y607751*
X281550*
X286650D02*
Y600000D01*
Y607751D02*
X288529D01*
X289334Y607382*
X289871Y606644*
X290140Y605906*
X290408Y604798*
Y602953*
X290140Y601845*
X289871Y601107*
X289334Y600369*
X288529Y600000*
X286650*
X292824Y607751D02*
Y600000D01*
Y607751D02*
X296314D01*
X292824Y604060D02*
X294971D01*
X292824Y600000D02*
X296314D01*
X298729Y607751D02*
Y600000D01*
Y607751D02*
X301145D01*
X301951Y607382*
X302219Y607013*
X302487Y606275*
Y605536*
X302219Y604798*
X301951Y604429*
X301145Y604060*
X298729*
X300608D02*
X302487Y600000D01*
X305440Y607751D02*
X308393D01*
X306782Y604798*
X307588*
X308125Y604429*
X308393Y604060*
X308661Y602953*
Y602215*
X308393Y601107*
X307856Y600369*
X307051Y600000*
X306246*
X305440Y600369*
X305172Y600738*
X304903Y601476*
X474377Y525795D02*
X476222D01*
X476592Y525885*
X476838Y526064*
X476961Y526332*
Y526511*
X476838Y526780*
X476592Y526958*
X476222Y527048*
X474377*
Y528748D02*
X476099Y527853D01*
Y529195*
X474377Y528748D02*
X476961D01*
X460000Y624984D02*
Y624281D01*
X460034Y624141*
X460102Y624047*
X460205Y624000*
X460273*
X460375Y624047*
X460443Y624141*
X460477Y624281*
Y624984*
X461227D02*
X460886D01*
X460852Y624563*
X460852D02*
X460886Y624609D01*
X460989Y624656*
X461091*
X461193Y624609*
X461261Y624516*
X461295Y624375*
X461261Y624281*
X461227Y624141*
X461159Y624047*
X461057Y624000*
X460955*
X460852Y624047*
X460818Y624094*
X460784Y624188*
X400000Y624984D02*
Y624281D01*
X400034Y624141*
X400102Y624047*
X400205Y624000*
X400273*
X400375Y624047*
X400443Y624141*
X400477Y624281*
Y624984*
X401193Y624844D02*
X401159Y624938D01*
X401159D02*
X401057Y624984D01*
X400989*
X400886Y624938*
X400886D02*
X400818Y624797D01*
X400784Y624563*
X400784D02*
Y624328D01*
X400818Y624141*
X400886Y624047*
X400989Y624000*
X401023*
X401125Y624047*
X401193Y624141*
X401227Y624281*
Y624328*
X401193Y624469*
X401125Y624563*
X401125D02*
X401023Y624609D01*
X400989*
X400886Y624563*
X400886D02*
X400818Y624469D01*
X400784Y624328*
X388000Y200563D02*
Y195875D01*
X388227Y194938*
X388227D02*
X388682Y194313D01*
X388682D02*
X389364Y194000D01*
X389818*
X390500Y194313*
X390500D02*
X390955Y194938D01*
X390955D02*
X391182Y195875D01*
Y200563*
X394364D02*
X393682Y200250D01*
X393455Y199625*
Y199000*
X393682Y198375*
X394136Y198063*
X394136D02*
X395045Y197750D01*
X395727Y197438*
X395727D02*
X396182Y196813D01*
X396182D02*
X396409Y196188D01*
X396409D02*
Y195250D01*
X396182Y194625*
X395955Y194313*
X395955D02*
X395273Y194000D01*
X394364*
X393682Y194313*
X393682D02*
X393455Y194625D01*
X393227Y195250*
Y196188*
X393227D02*
X393455Y196813D01*
X393455D02*
X393909Y197438D01*
X393909D02*
X394591Y197750D01*
X395500Y198063*
X395500D02*
X395955Y198375D01*
X396182Y199000*
Y199625*
X395955Y200250*
X395273Y200563*
X395273D02*
X394364D01*
X254031Y596000D02*
X255437D01*
X255437D02*
X255719Y596068D01*
X255906Y596205*
X256000Y596409*
Y596545*
X255906Y596750*
X255719Y596886*
X255437Y596955*
X255437D02*
X254031D01*
X254406Y597568D02*
X254312Y597705D01*
X254312D02*
X254031Y597909D01*
X256000*
X254687Y599409D02*
X254969Y599341D01*
X255156Y599205*
X255250Y599000*
Y598932*
X255156Y598727*
X254969Y598591*
X254687Y598523*
X254687D02*
X254594D01*
X254312Y598591*
X254312D02*
X254125Y598727D01*
X254031Y598932*
Y599000*
X254125Y599205*
X254312Y599341*
X254312D02*
X254687Y599409D01*
X254687D02*
X255156D01*
X255625Y599341*
X255906Y599205*
X256000Y599000*
Y598864*
X255906Y598659*
X255719Y598591*
X394031Y581000D02*
X395437D01*
X395437D02*
X395719Y581068D01*
X395906Y581205*
X396000Y581409*
Y581545*
X395906Y581750*
X395719Y581886*
X395437Y581955*
X395437D02*
X394031D01*
X394500Y582636D02*
X394406D01*
X394219Y582705*
X394125Y582773*
X394031Y582909*
Y583182*
X394125Y583318*
X394219Y583386*
X394406Y583455*
X394594*
X394781Y583386*
X395062Y583250*
X395062D02*
X396000Y582568D01*
Y583523*
X394031Y584545D02*
X394125Y584341D01*
X394406Y584205*
X394875Y584136*
X395156*
X395625Y584205*
X395906Y584341*
X396000Y584545*
Y584682*
X395906Y584886*
X395625Y585023*
X395156Y585091*
X394875*
X394406Y585023*
X394125Y584886*
X394031Y584682*
Y584545*
X176016Y152000D02*
X176719D01*
X176859Y152034*
X176953Y152102*
X177000Y152205*
Y152273*
X176953Y152375*
X176859Y152443*
X176719Y152477*
X176016*
X176203Y152784D02*
X176156Y152852D01*
X176016Y152955*
X177000*
G54D38*
X123000Y264938D02*
Y261000D01*
Y264938D02*
X124227D01*
X124227D02*
X124636Y264750D01*
X124773Y264563*
X124773D02*
X124909Y264188D01*
X124909D02*
Y263625D01*
X124773Y263250*
X124636Y263063*
X124636D02*
X124227Y262875D01*
X123000*
X126136Y264938D02*
X126818Y261000D01*
X127500Y264938D02*
X126818Y261000D01*
X127500Y264938D02*
X128182Y261000D01*
X128864Y264938D02*
X128182Y261000D01*
X130091Y264938D02*
Y261000D01*
Y264938D02*
X131318D01*
X131318D02*
X131727Y264750D01*
X131864Y264563*
X131864D02*
X132000Y264188D01*
X132000D02*
Y263813D01*
X132000D02*
X131864Y263438D01*
X131864D02*
X131727Y263250D01*
X131318Y263063*
X131318D02*
X130091D01*
X131045D02*
X132000Y261000D01*
X136364Y264938D02*
Y261000D01*
X137591Y262500D02*
X139227D01*
Y262875*
X139091Y263250*
X138955Y263438*
X138955D02*
X138682Y263625D01*
X138273*
X138000Y263438*
X138000D02*
X137727Y263063D01*
X137727D02*
X137591Y262500D01*
Y262125*
X137727Y261563*
X137727D02*
X138000Y261188D01*
X138000D02*
X138273Y261000D01*
X138682*
X138955Y261188*
X138955D02*
X139227Y261563D01*
X142091Y264938D02*
Y261000D01*
Y263063D02*
X141818Y263438D01*
X141818D02*
X141545Y263625D01*
X141136*
X140864Y263438*
X140864D02*
X140591Y263063D01*
X140591D02*
X140455Y262500D01*
Y262125*
X140591Y261563*
X140591D02*
X140864Y261188D01*
X140864D02*
X141136Y261000D01*
X141545*
X141818Y261188*
X141818D02*
X142091Y261563D01*
X472000Y459594D02*
Y456313D01*
X472000D02*
X472159Y455656D01*
X472477Y455219*
X472955Y455000*
X473273*
X473750Y455219*
X474068Y455656*
X474227Y456313*
X474227D02*
Y459594D01*
X476932D02*
X475659Y455000D01*
X476932Y459594D02*
X478205Y455000D01*
X476136Y456531D02*
X477727D01*
X479636Y459594D02*
Y455000D01*
Y459594D02*
X481068D01*
X481545Y459375*
X481705Y459156*
X481864Y458719*
Y458281*
X481705Y457844*
X481545Y457625*
X481068Y457406*
X479636*
X480750D02*
X481864Y455000D01*
X484409Y459594D02*
Y455000D01*
X483295Y459594D02*
X485523D01*
X486955Y458719D02*
X487273Y458938D01*
X487273D02*
X487750Y459594D01*
Y455000*
X472000Y476594D02*
Y473313D01*
X472000D02*
X472159Y472656D01*
X472477Y472219*
X472955Y472000*
X473273*
X473750Y472219*
X474068Y472656*
X474227Y473313*
X474227D02*
Y476594D01*
X476932D02*
X475659Y472000D01*
X476932Y476594D02*
X478205Y472000D01*
X476136Y473531D02*
X477727D01*
X479636Y476594D02*
Y472000D01*
Y476594D02*
X481068D01*
X481545Y476375*
X481705Y476156*
X481864Y475719*
Y475281*
X481705Y474844*
X481545Y474625*
X481068Y474406*
X479636*
X480750D02*
X481864Y472000D01*
X484409Y476594D02*
Y472000D01*
X483295Y476594D02*
X485523D01*
X487273D02*
X489023D01*
X488068Y474844*
X488545*
X488864Y474625*
X489023Y474406*
X489182Y473750*
Y473313*
X489182D02*
X489023Y472656D01*
X488705Y472219*
X488227Y472000*
X487750*
X487273Y472219*
X487114Y472438*
X487114D02*
X486955Y472875D01*
G54D39*
X138227Y249375D02*
Y246000D01*
X137000Y247688D02*
X139455D01*
X447000Y217594D02*
Y214313D01*
X447000D02*
X447159Y213656D01*
X447477Y213219*
X447955Y213000*
X448273*
X448750Y213219*
X449068Y213656*
X449227Y214313*
X449227D02*
Y217594D01*
X452568Y216938D02*
X452409Y217375D01*
X451932Y217594*
X451614*
X451136Y217375*
X450818Y216719*
X450659Y215625*
Y214531*
X450818Y213656*
X451136Y213219*
X451614Y213000*
X451773*
X452250Y213219*
X452568Y213656*
X452727Y214313*
X452727D02*
Y214531D01*
X452568Y215188*
X452568D02*
X452250Y215625D01*
X451773Y215844*
X451614*
X451136Y215625*
X450818Y215188*
X450818D02*
X450659Y214531D01*
X468227Y216938D02*
X467909Y217375D01*
X467432Y217594*
X466795*
X466318Y217375*
X466000Y216938*
X466000D02*
Y216500D01*
X466159Y216063*
X466159D02*
X466318Y215844D01*
X466636Y215625*
X467591Y215188*
X467591D02*
X467909Y214969D01*
X468068Y214750*
X468227Y214313*
X468227D02*
Y213656D01*
X467909Y213219*
X467432Y213000*
X466795*
X466318Y213219*
X466000Y213656*
X469659Y217594D02*
Y213000D01*
Y217594D02*
X471727D01*
X469659Y215406D02*
X470932D01*
X469659Y213000D02*
X471727D01*
X473159Y217594D02*
Y213000D01*
X475068*
X487000Y217594D02*
Y214313D01*
X487000D02*
X487159Y213656D01*
X487477Y213219*
X487955Y213000*
X488273*
X488750Y213219*
X489068Y213656*
X489227Y214313*
X489227D02*
Y217594D01*
X492568Y216938D02*
X492409Y217375D01*
X491932Y217594*
X491614*
X491136Y217375*
X490818Y216719*
X490659Y215625*
Y214531*
X490818Y213656*
X491136Y213219*
X491614Y213000*
X491773*
X492250Y213219*
X492568Y213656*
X492727Y214313*
X492727D02*
Y214531D01*
X492568Y215188*
X492568D02*
X492250Y215625D01*
X491773Y215844*
X491614*
X491136Y215625*
X490818Y215188*
X490818D02*
X490659Y214531D01*
X508227Y216938D02*
X507909Y217375D01*
X507432Y217594*
X506795*
X506318Y217375*
X506000Y216938*
X506000D02*
Y216500D01*
X506159Y216063*
X506159D02*
X506318Y215844D01*
X506636Y215625*
X507591Y215188*
X507591D02*
X507909Y214969D01*
X508068Y214750*
X508227Y214313*
X508227D02*
Y213656D01*
X507909Y213219*
X507432Y213000*
X506795*
X506318Y213219*
X506000Y213656*
X509659Y217594D02*
Y213000D01*
Y217594D02*
X511727D01*
X509659Y215406D02*
X510932D01*
X509659Y213000D02*
X511727D01*
X513159Y217594D02*
Y213000D01*
X515068*
X240386Y271500D02*
X240227Y271938D01*
X240227D02*
X239909Y272375D01*
X239591Y272594*
X238955*
X238636Y272375*
X238318Y271938*
X238318D02*
X238159Y271500D01*
X238000Y270844*
Y269750*
X238159Y269094*
X238318Y268656*
X238636Y268219*
X238955Y268000*
X239591*
X239909Y268219*
X240227Y268656*
X240386Y269094*
Y269750*
X239591D02*
X240386D01*
X241818Y272594D02*
Y268000D01*
Y272594D02*
X244045Y268000D01*
Y272594D02*
Y268000D01*
X245477Y272594D02*
Y268000D01*
Y272594D02*
X246591D01*
X247068Y272375*
X247386Y271938*
X247386D02*
X247545Y271500D01*
X247705Y270844*
Y269750*
X247545Y269094*
X247386Y268656*
X247068Y268219*
X246591Y268000*
X245477*
X282000Y272594D02*
X283273Y268000D01*
X284545Y272594D02*
X283273Y268000D01*
X288364Y271500D02*
X288205Y271938D01*
X288205D02*
X287886Y272375D01*
X287568Y272594*
X286932*
X286614Y272375*
X286295Y271938*
X286295D02*
X286136Y271500D01*
X285977Y270844*
Y269750*
X286136Y269094*
X286295Y268656*
X286614Y268219*
X286932Y268000*
X287568*
X287886Y268219*
X288205Y268656*
X288364Y269094*
X292182Y271500D02*
X292023Y271938D01*
X292023D02*
X291705Y272375D01*
X291386Y272594*
X290750*
X290432Y272375*
X290114Y271938*
X290114D02*
X289955Y271500D01*
X289795Y270844*
Y269750*
X289955Y269094*
X290114Y268656*
X290432Y268219*
X290750Y268000*
X291386*
X291705Y268219*
X292023Y268656*
X292182Y269094*
X252000Y272594D02*
Y268000D01*
Y272594D02*
X253432D01*
X253909Y272375*
X254068Y272156*
X254227Y271719*
Y271063*
X254227D02*
X254068Y270625D01*
X253909Y270406*
X253432Y270188*
X253432D02*
X252000D01*
X255659Y272594D02*
Y268000D01*
Y272594D02*
X256773D01*
X257250Y272375*
X257568Y271938*
X257568D02*
X257727Y271500D01*
X257886Y270844*
Y269750*
X257727Y269094*
X257568Y268656*
X257250Y268219*
X256773Y268000*
X255659*
X259477Y271500D02*
Y271719D01*
X259636Y272156*
X259795Y272375*
X260114Y272594*
X260750*
X261068Y272375*
X261227Y272156*
X261386Y271719*
Y271281*
X261227Y270844*
X260909Y270188*
X260909D02*
X259318Y268000D01*
X261545*
X266000Y272594D02*
Y268000D01*
Y272594D02*
X267432D01*
X267909Y272375*
X268068Y272156*
X268227Y271719*
Y271063*
X268227D02*
X268068Y270625D01*
X267909Y270406*
X267432Y270188*
X267432D02*
X266000D01*
X272045Y271500D02*
X271886Y271938D01*
X271886D02*
X271568Y272375D01*
X271250Y272594*
X270614*
X270295Y272375*
X269977Y271938*
X269977D02*
X269818Y271500D01*
X269659Y270844*
Y269750*
X269818Y269094*
X269977Y268656*
X270295Y268219*
X270614Y268000*
X271250*
X271568Y268219*
X271886Y268656*
X272045Y269094*
X273477Y271719D02*
X273795Y271938D01*
X273795D02*
X274273Y272594D01*
Y268000*
X275864Y271500D02*
Y271719D01*
X276023Y272156*
X276182Y272375*
X276500Y272594*
X277136*
X277455Y272375*
X277614Y272156*
X277773Y271719*
Y271281*
X277614Y270844*
X277295Y270188*
X277295D02*
X275705Y268000D01*
X277932*
X407000Y273594D02*
X408273Y269000D01*
X409545Y273594D02*
X408273Y269000D01*
X413364Y272500D02*
X413205Y272938D01*
X413205D02*
X412886Y273375D01*
X412568Y273594*
X411932*
X411614Y273375*
X411295Y272938*
X411295D02*
X411136Y272500D01*
X410977Y271844*
Y270750*
X411136Y270094*
X411295Y269656*
X411614Y269219*
X411932Y269000*
X412568*
X412886Y269219*
X413205Y269656*
X413364Y270094*
X417182Y272500D02*
X417023Y272938D01*
X417023D02*
X416705Y273375D01*
X416386Y273594*
X415750*
X415432Y273375*
X415114Y272938*
X415114D02*
X414955Y272500D01*
X414795Y271844*
Y270750*
X414955Y270094*
X415114Y269656*
X415432Y269219*
X415750Y269000*
X416386*
X416705Y269219*
X417023Y269656*
X417182Y270094*
X368386Y272500D02*
X368227Y272938D01*
X368227D02*
X367909Y273375D01*
X367591Y273594*
X366955*
X366636Y273375*
X366318Y272938*
X366318D02*
X366159Y272500D01*
X366000Y271844*
Y270750*
X366159Y270094*
X366318Y269656*
X366636Y269219*
X366955Y269000*
X367591*
X367909Y269219*
X368227Y269656*
X368386Y270094*
Y270750*
X367591D02*
X368386D01*
X369818Y273594D02*
Y269000D01*
Y273594D02*
X372045Y269000D01*
Y273594D02*
Y269000D01*
X373477Y273594D02*
Y269000D01*
Y273594D02*
X374591D01*
X375068Y273375*
X375386Y272938*
X375386D02*
X375545Y272500D01*
X375705Y271844*
Y270750*
X375545Y270094*
X375386Y269656*
X375068Y269219*
X374591Y269000*
X373477*
X380000Y273594D02*
Y269000D01*
Y273594D02*
X381432D01*
X381909Y273375*
X382068Y273156*
X382227Y272719*
Y272063*
X382227D02*
X382068Y271625D01*
X381909Y271406*
X381432Y271188*
X381432D02*
X380000D01*
X384932Y273594D02*
X383659Y269000D01*
X384932Y273594D02*
X386205Y269000D01*
X384136Y270531D02*
X385727D01*
X387636Y272719D02*
X387955Y272938D01*
X387955D02*
X388432Y273594D01*
Y269000*
X389864Y272719D02*
X390182Y272938D01*
X390182D02*
X390659Y273594D01*
Y269000*
X393000Y273594D02*
Y269000D01*
Y273594D02*
X394432D01*
X394909Y273375*
X395068Y273156*
X395227Y272719*
Y272063*
X395227D02*
X395068Y271625D01*
X394909Y271406*
X394432Y271188*
X394432D02*
X393000D01*
X397932Y273594D02*
X396659Y269000D01*
X397932Y273594D02*
X399205Y269000D01*
X397136Y270531D02*
X398727D01*
X400636Y272719D02*
X400955Y272938D01*
X400955D02*
X401432Y273594D01*
Y269000*
X403023Y272500D02*
Y272719D01*
X403182Y273156*
X403341Y273375*
X403659Y273594*
X404295*
X404614Y273375*
X404773Y273156*
X404932Y272719*
Y272281*
X404773Y271844*
X404455Y271188*
X404455D02*
X402864Y269000D01*
X405091*
X416000Y142594D02*
Y138000D01*
X418227Y142594D02*
Y138000D01*
X416000Y140406D02*
X418227D01*
X359000Y134594D02*
Y130000D01*
X361227Y134594D02*
Y130000D01*
X359000Y132406D02*
X361227D01*
X340000Y134594D02*
Y130000D01*
X342227Y134594D02*
Y130000D01*
X340000Y132406D02*
X342227D01*
X319000Y134594D02*
Y130000D01*
X321227Y134594D02*
Y130000D01*
X319000Y132406D02*
X321227D01*
X299000Y134594D02*
Y130000D01*
X301227Y134594D02*
Y130000D01*
X299000Y132406D02*
X301227D01*
X359000Y144594D02*
Y140000D01*
X360909*
X340000Y144594D02*
Y140000D01*
X341909*
X319000Y144594D02*
Y140000D01*
X320909*
X299000Y144594D02*
Y140000D01*
X300909*
X389000Y143594D02*
Y139000D01*
X390909*
X418386Y153500D02*
X418227Y153938D01*
X418227D02*
X417909Y154375D01*
X417591Y154594*
X416955*
X416636Y154375*
X416318Y153938*
X416318D02*
X416159Y153500D01*
X416000Y152844*
Y151750*
X416159Y151094*
X416318Y150656*
X416636Y150219*
X416955Y150000*
X417591*
X417909Y150219*
X418227Y150656*
X418386Y151094*
Y151750*
X417591D02*
X418386D01*
X361386Y153500D02*
X361227Y153938D01*
X361227D02*
X360909Y154375D01*
X360591Y154594*
X359955*
X359636Y154375*
X359318Y153938*
X359318D02*
X359159Y153500D01*
X359000Y152844*
Y151750*
X359159Y151094*
X359318Y150656*
X359636Y150219*
X359955Y150000*
X360591*
X360909Y150219*
X361227Y150656*
X361386Y151094*
Y151750*
X360591D02*
X361386D01*
X341386Y153500D02*
X341227Y153938D01*
X341227D02*
X340909Y154375D01*
X340591Y154594*
X339955*
X339636Y154375*
X339318Y153938*
X339318D02*
X339159Y153500D01*
X339000Y152844*
Y151750*
X339159Y151094*
X339318Y150656*
X339636Y150219*
X339955Y150000*
X340591*
X340909Y150219*
X341227Y150656*
X341386Y151094*
Y151750*
X340591D02*
X341386D01*
X321386Y153500D02*
X321227Y153938D01*
X321227D02*
X320909Y154375D01*
X320591Y154594*
X319955*
X319636Y154375*
X319318Y153938*
X319318D02*
X319159Y153500D01*
X319000Y152844*
Y151750*
X319159Y151094*
X319318Y150656*
X319636Y150219*
X319955Y150000*
X320591*
X320909Y150219*
X321227Y150656*
X321386Y151094*
Y151750*
X320591D02*
X321386D01*
X301386Y153500D02*
X301227Y153938D01*
X301227D02*
X300909Y154375D01*
X300591Y154594*
X299955*
X299636Y154375*
X299318Y153938*
X299318D02*
X299159Y153500D01*
X299000Y152844*
Y151750*
X299159Y151094*
X299318Y150656*
X299636Y150219*
X299955Y150000*
X300591*
X300909Y150219*
X301227Y150656*
X301386Y151094*
Y151750*
X300591D02*
X301386D01*
X347406Y310000D02*
X352000Y311273D01*
X347406Y312545D02*
X352000Y311273D01*
X347406Y313977D02*
X347625Y314136D01*
X347406Y314295*
X347187Y314136*
X347187D02*
X347406Y313977D01*
X348937Y314136D02*
X352000D01*
X348937Y315727D02*
X352000D01*
X349812D02*
X349156Y316205D01*
X348937Y316523*
X348937D02*
Y317000D01*
X348937D02*
X349156Y317318D01*
X349812Y317477*
X349812D02*
X352000D01*
X338500Y311386D02*
X338062Y311227D01*
X338062D02*
X337625Y310909D01*
X337406Y310591*
Y309955*
X337625Y309636*
X338062Y309318*
X338062D02*
X338500Y309159D01*
X339156Y309000*
X340250*
X340906Y309159*
X341344Y309318*
X341781Y309636*
X342000Y309955*
Y310591*
X341781Y310909*
X341344Y311227*
X340906Y311386*
X340250*
Y310591D02*
Y311386D01*
X337406Y312818D02*
X342000D01*
X337406D02*
X342000Y315045D01*
X337406D02*
X342000D01*
X337406Y316477D02*
X342000D01*
X337406D02*
Y317591D01*
X337625Y318068*
X338062Y318386*
X338062D02*
X338500Y318545D01*
X339156Y318705*
X340250*
X340906Y318545*
X341344Y318386*
X341781Y318068*
X342000Y317591*
Y316477*
X328500Y311386D02*
X328062Y311227D01*
X328062D02*
X327625Y310909D01*
X327406Y310591*
Y309955*
X327625Y309636*
X328062Y309318*
X328062D02*
X328500Y309159D01*
X329156Y309000*
X330250*
X330906Y309159*
X331344Y309318*
X331781Y309636*
X332000Y309955*
Y310591*
X331781Y310909*
X331344Y311227*
X330906Y311386*
X330250*
Y310591D02*
Y311386D01*
X327406Y312818D02*
X332000D01*
X327406D02*
X332000Y315045D01*
X327406D02*
X332000D01*
X327406Y316477D02*
X332000D01*
X327406D02*
Y317591D01*
X327625Y318068*
X328062Y318386*
X328062D02*
X328500Y318545D01*
X329156Y318705*
X330250*
X330906Y318545*
X331344Y318386*
X331781Y318068*
X332000Y317591*
Y316477*
X317406Y311068D02*
Y309477D01*
X319375Y309318*
X319156Y309477*
X318937Y309955*
X318937D02*
Y310432D01*
X318937D02*
X319156Y310909D01*
X319594Y311227*
X320250Y311386*
X320687Y311227*
X320687D02*
X321344Y311068D01*
X321781Y310750*
X322000Y310273*
Y309795*
X321781Y309318*
X321562Y309159*
X321562D02*
X321125Y309000D01*
X317406Y312818D02*
X322000Y314091D01*
X317406Y315364D02*
X322000Y314091D01*
X495000Y450594D02*
X496273Y446000D01*
X497545Y450594D02*
X496273Y446000D01*
X501364Y449500D02*
X501205Y449938D01*
X501205D02*
X500886Y450375D01*
X500568Y450594*
X499932*
X499614Y450375*
X499295Y449938*
X499295D02*
X499136Y449500D01*
X498977Y448844*
Y447750*
X499136Y447094*
X499295Y446656*
X499614Y446219*
X499932Y446000*
X500568*
X500886Y446219*
X501205Y446656*
X501364Y447094*
X505182Y449500D02*
X505023Y449938D01*
X505023D02*
X504705Y450375D01*
X504386Y450594*
X503750*
X503432Y450375*
X503114Y449938*
X503114D02*
X502955Y449500D01*
X502795Y448844*
Y447750*
X502955Y447094*
X503114Y446656*
X503432Y446219*
X503750Y446000*
X504386*
X504705Y446219*
X505023Y446656*
X505182Y447094*
X453386Y449500D02*
X453227Y449938D01*
X453227D02*
X452909Y450375D01*
X452591Y450594*
X451955*
X451636Y450375*
X451318Y449938*
X451318D02*
X451159Y449500D01*
X451000Y448844*
Y447750*
X451159Y447094*
X451318Y446656*
X451636Y446219*
X451955Y446000*
X452591*
X452909Y446219*
X453227Y446656*
X453386Y447094*
Y447750*
X452591D02*
X453386D01*
X454818Y450594D02*
Y446000D01*
Y450594D02*
X457045Y446000D01*
Y450594D02*
Y446000D01*
X458477Y450594D02*
Y446000D01*
Y450594D02*
X459591D01*
X460068Y450375*
X460386Y449938*
X460386D02*
X460545Y449500D01*
X460705Y448844*
Y447750*
X460545Y447094*
X460386Y446656*
X460068Y446219*
X459591Y446000*
X458477*
X481000Y450594D02*
Y446000D01*
Y450594D02*
X482432D01*
X482909Y450375*
X483068Y450156*
X483227Y449719*
Y449063*
X483227D02*
X483068Y448625D01*
X482909Y448406*
X482432Y448188*
X482432D02*
X481000D01*
X485932Y450594D02*
X484659Y446000D01*
X485932Y450594D02*
X487205Y446000D01*
X485136Y447531D02*
X486727D01*
X490705Y449063D02*
X490545Y448406D01*
X490227Y447969*
X489750Y447750*
X489591*
X489114Y447969*
X488795Y448406*
X488636Y449063*
X488636D02*
Y449281D01*
X488795Y449938*
X488795D02*
X489114Y450375D01*
X489591Y450594*
X489750*
X490227Y450375*
X490545Y449938*
X490545D02*
X490705Y449063D01*
X490705D02*
Y447969D01*
X490545Y446875*
X490227Y446219*
X489750Y446000*
X489432*
X488955Y446219*
X488795Y446656*
X465000Y450594D02*
Y446000D01*
Y450594D02*
X466432D01*
X466909Y450375*
X467068Y450156*
X467227Y449719*
Y449063*
X467227D02*
X467068Y448625D01*
X466909Y448406*
X466432Y448188*
X466432D02*
X465000D01*
X469932Y450594D02*
X468659Y446000D01*
X469932Y450594D02*
X471205Y446000D01*
X469136Y447531D02*
X470727D01*
X472636Y449719D02*
X472955Y449938D01*
X472955D02*
X473432Y450594D01*
Y446000*
X475818Y450594D02*
X475341Y450375D01*
X475023Y449719*
X474864Y448625*
Y447969*
X475023Y446875*
X475341Y446219*
X475818Y446000*
X476136*
X476614Y446219*
X476932Y446875*
X477091Y447969*
Y448625*
X476932Y449719*
X476614Y450375*
X476136Y450594*
X475818*
X454000Y484594D02*
X455273Y480000D01*
X456545Y484594D02*
X455273Y480000D01*
X460364Y483500D02*
X460205Y483938D01*
X460205D02*
X459886Y484375D01*
X459568Y484594*
X458932*
X458614Y484375*
X458295Y483938*
X458295D02*
X458136Y483500D01*
X457977Y482844*
Y481750*
X458136Y481094*
X458295Y480656*
X458614Y480219*
X458932Y480000*
X459568*
X459886Y480219*
X460205Y480656*
X460364Y481094*
X464182Y483500D02*
X464023Y483938D01*
X464023D02*
X463705Y484375D01*
X463386Y484594*
X462750*
X462432Y484375*
X462114Y483938*
X462114D02*
X461955Y483500D01*
X461795Y482844*
Y481750*
X461955Y481094*
X462114Y480656*
X462432Y480219*
X462750Y480000*
X463386*
X463705Y480219*
X464023Y480656*
X464182Y481094*
X471386Y483500D02*
X471227Y483938D01*
X471227D02*
X470909Y484375D01*
X470591Y484594*
X469955*
X469636Y484375*
X469318Y483938*
X469318D02*
X469159Y483500D01*
X469000Y482844*
Y481750*
X469159Y481094*
X469318Y480656*
X469636Y480219*
X469955Y480000*
X470591*
X470909Y480219*
X471227Y480656*
X471386Y481094*
Y481750*
X470591D02*
X471386D01*
X472818Y484594D02*
Y480000D01*
Y484594D02*
X475045Y480000D01*
Y484594D02*
Y480000D01*
X476477Y484594D02*
Y480000D01*
Y484594D02*
X477591D01*
X478068Y484375*
X478386Y483938*
X478386D02*
X478545Y483500D01*
X478705Y482844*
Y481750*
X478545Y481094*
X478386Y480656*
X478068Y480219*
X477591Y480000*
X476477*
X482000Y484594D02*
Y480000D01*
Y484594D02*
X483432D01*
X483909Y484375*
X484068Y484156*
X484227Y483719*
Y483063*
X484227D02*
X484068Y482625D01*
X483909Y482406*
X483432Y482188*
X483432D02*
X482000D01*
X488045Y483500D02*
X487886Y483938D01*
X487886D02*
X487568Y484375D01*
X487250Y484594*
X486614*
X486295Y484375*
X485977Y483938*
X485977D02*
X485818Y483500D01*
X485659Y482844*
Y481750*
X485818Y481094*
X485977Y480656*
X486295Y480219*
X486614Y480000*
X487250*
X487568Y480219*
X487886Y480656*
X488045Y481094*
X489477Y483719D02*
X489795Y483938D01*
X489795D02*
X490273Y484594D01*
Y480000*
X491705Y483719D02*
X492023Y483938D01*
X492023D02*
X492500Y484594D01*
Y480000*
X497000Y484594D02*
Y480000D01*
Y484594D02*
X498432D01*
X498909Y484375*
X499068Y484156*
X499227Y483719*
Y483063*
X499227D02*
X499068Y482625D01*
X498909Y482406*
X498432Y482188*
X498432D02*
X497000D01*
X503045Y483500D02*
X502886Y483938D01*
X502886D02*
X502568Y484375D01*
X502250Y484594*
X501614*
X501295Y484375*
X500977Y483938*
X500977D02*
X500818Y483500D01*
X500659Y482844*
Y481750*
X500818Y481094*
X500977Y480656*
X501295Y480219*
X501614Y480000*
X502250*
X502568Y480219*
X502886Y480656*
X503045Y481094*
X504477Y483719D02*
X504795Y483938D01*
X504795D02*
X505273Y484594D01*
Y480000*
X507659Y484594D02*
X507182Y484375D01*
X506864Y483719*
X506705Y482625*
Y481969*
X506864Y480875*
X507182Y480219*
X507659Y480000*
X507977*
X508455Y480219*
X508773Y480875*
X508932Y481969*
Y482625*
X508773Y483719*
X508455Y484375*
X507977Y484594*
X507659*
X333227Y598375D02*
Y595000D01*
X332000Y596688D02*
X334455D01*
X300227Y598375D02*
Y595000D01*
X299000Y596688D02*
X301455D01*
G74*
X0Y0D02*
M02*
